<?xml version="1.0" encoding="UTF-8"?>
<svg id="Layer_1" xmlns="http://www.w3.org/2000/svg" version="1.1" viewBox="0 0 512 512">
  <!-- Generator: Adobe Illustrator 30.4.0, SVG Export Plug-In . SVG Version: 2.1.4 Build 226)  -->
  <defs>
    <style>
      .st0 {
        fill: #dbac49;
      }

      .st1 {
        fill: #e3e3e3;
      }

      .st2 {
        fill: #1a1a1a;
      }
    </style>
  </defs>
  <path class="st1" d="M328.35,241.92l-3.17-13.19c-7.86-21.68-24.79-38.33-46.9-44.91-13.89-4.13-27.43-4.38-41.88-3.58-6.49,2.68-13.44,2.64-20.2,3.12l-12.74,3.49-9.67,3.03c-17.1,5.35-40.19,19.06-50.8,33.19l-10.53,14.02c-.41.54-2.42,1.4-2.91,1.05-.66-.47-1.57-2.2-1.57-3.15l.13-87.83,3.59-11.5c4.01-12.85,12.95-22.67,24.23-28.64,7.51-3.98,14.1-4.05,22.28-3.47,10.41.74,21.21.72,31.82.17l18.98-.99,11.99-.72,13.05-.78c5.51-.33,11.39-.47,16.81,0l11.2.97,20.6,2.5,11.88,3.03,8.84,3c24.1,8.18,43.37,31.08,51.97,55.17l3.32,12.82c3.61,13.93,3.22,27.56-.18,41.28l-2.62,10.54c-4.56,18.39-22.51,45.63-38.3,56.11l-15.04,9.98c-2.62,1.74-5.76,3.02-8.97,2.86l8.41-14.67,3.28-8.13,3.25-12.92c1.63-6.47,1.5-14.95-.14-21.82Z"/>
  <path class="st1" d="M209.57,325.65l-3.12-12.37-2.11-9.97c-.43-2.05-.21-4.21,1.05-7.08l15.21,14.46c2.21,2.1,6.91,4.24,10.04,5.57l6.85,2.91,11.88,3.13c9.56,2.52,19.6.64,29.72.59,3.38-.02,7.84-1.64,11.07-2.41l11.35-2.69,8.2-2.83c18.79-6.48,38.31-18.83,50.63-34.59,3.51-4.48,5.24-10.13,11.57-11.95l11.53,22.23,2.78,7.72,3.06,13.11c1.89,8.1,2.06,18.09.05,26.29l-3.15,12.81-3.05,8.53c-9.88,22.96-28.27,40.11-51.95,48.01l-15.29,3.48c-6.33,1.44-14.38,1.25-20.53-.17l-12.9-2.98c-34.23-10.26-58.49-40.21-69.92-73.23l-2.97-8.59Z"/>
  <path class="st1" d="M254.83,411.07l-86.63-.03-9.04-3.47c-4.58-1.76-9.14-5.35-13.2-8.6-7.13-5.72-12.77-13.99-14.83-22.83l-3.06-13.15.1-72.7c0-4.26,2.08-9.3,2.47-13.23.5-5.03,1.01-9.09,2.64-13.58l2.95-8.1,3.41-7.66c1.72-3.86,4.35-8.82,7.23-11.75l17.95-18.27c1.51-1.54,4.49-3.19,6.45-4.53,6-4.11,12.04-7.56,18.83-10.19l6.66-2.58c3.3-1.28,6.41-2.23,10.03-2.97l8.32-1.7c-.08,7.68-10.65,10.29-16.14,24.23l-3.12,7.91c-1.13,2.87-2.62,7.49-3.08,10.41l-3.19,20.11c-.83,5.24-.89,12.11-.15,17.61l3.44,25.64,2.78,13.08,3.29,12.7,2.85,9.14,3.25,8.5c6.52,17.08,15.96,32.19,29.16,44.69,6.5,6.74,12.58,12.38,20.18,18.09l.46,3.25Z"/>
  <path class="st0" d="M272.5,301.87c-9.6,2.8-14.62,3.81-25.78-.22l-7.36-2.66c-2.42-.88-4.77-2.04-6.8-3.39-13.08-8.64-19-18.95-22.23-33.42-1.6-7.15-1.97-13.22.13-20.36l2.45-8.29c3.54-11.98,15.65-22.93,27.44-28.2,9.5-4.25,19.56-4.33,30.62-2.95,2.44.31,6.95,2.27,9.37,3.23,12.11,4.83,21.02,13.98,26.34,25.78.95,2.11,1.75,3.9,3.31,6.17v29.89c-1.59,2.29-2.13,4.11-3.37,6.3l-6.15,10.81c-4.24,7.45-12.54,11.14-20.04,14.95-2.28,1.16-5.25,1.57-7.93,2.35Z"/>
  <path class="st2" d="M407.61,508.82l-12.82,1.1H119.3s-10.31-.94-10.31-.94c-4.71-.43-8.85-1.06-13.26-2.36l-9.98-2.95-7.99-3.06c-31.12-11.92-59.31-46.19-66.15-78.31l-3.18-14.95c-1.96-9.21-1.23-17.47-.93-26.78.88-27.7.72-55.27-.02-83l-1.04-39.15-.25-121.35c-.02-8.42,1.44-18.66,2.45-27.19,3.26-27.55,14.62-53.34,34.03-73.33,15.61-16.07,36.2-26.33,58.11-30.88,4.13-.86,8.66-2.2,12.64-2.28l40.12-.87,81.41-.53,14.11.9,86.33.64,75.53.77c2.69.03,8.2,1.59,10.8,2.4l9.21,2.87,7.4,3.11c6.24,2.62,12.16,5.63,17.49,9.52l9.3,6.79c6.73,4.92,12.93,11.2,17.95,17.9l5.19,6.93c5.75,7.68,10.48,16.07,13.62,25.42l3.42,10.21,3.14,12.72,1.49,15.01.1,227.62-.92,9.26-.28,55.55c-10,51.09-49.25,90.78-101.2,99.2ZM328.35,241.92c1.65,6.87,1.77,15.35.14,21.82l-3.25,12.92-3.28,8.13-8.41,14.67c3.2.16,6.34-1.12,8.97-2.86l15.04-9.98c15.79-10.48,33.74-37.72,38.3-56.11l2.62-10.54c3.4-13.71,3.8-27.35.18-41.28l-3.32-12.82c-8.61-24.09-27.88-46.99-51.97-55.17l-8.84-3-11.88-3.03-20.6-2.5-11.2-.97c-5.42-.47-11.3-.33-16.81,0l-13.05.78-11.99.72-18.98.99c-10.61.55-21.42.57-31.82-.17-8.17-.58-14.76-.51-22.28,3.47-11.28,5.97-20.22,15.79-24.23,28.64l-3.59,11.5-.13,87.83c0,.95.91,2.67,1.57,3.15.49.35,2.5-.51,2.91-1.05l10.53-14.02c10.61-14.13,33.7-27.83,50.8-33.19l9.67-3.03,12.74-3.49c6.76-.47,13.71-.44,20.2-3.12,14.45-.8,27.99-.55,41.88,3.58,22.11,6.58,39.04,23.24,46.9,44.91l3.17,13.19ZM254.83,411.07l-.46-3.25c-7.59-5.71-13.68-11.35-20.18-18.09-13.21-12.5-22.64-27.62-29.16-44.69l-3.25-8.5-2.85-9.14-3.29-12.7-2.78-13.08-3.44-25.64c-.74-5.5-.68-12.37.15-17.61l3.19-20.11c.46-2.92,1.95-7.54,3.08-10.41l3.12-7.91c5.49-13.94,16.06-16.54,16.14-24.23l-8.32,1.7c-3.63.74-6.73,1.69-10.03,2.97l-6.66,2.58c-6.78,2.63-12.83,6.08-18.83,10.19-1.96,1.34-4.94,3-6.45,4.53l-17.95,18.27c-2.88,2.93-5.51,7.89-7.23,11.75l-3.41,7.66-2.95,8.1c-1.63,4.48-2.15,8.55-2.64,13.58-.39,3.93-2.46,8.97-2.47,13.23l-.1,72.7,3.06,13.15c2.06,8.84,7.7,17.11,14.83,22.83,4.06,3.26,8.63,6.85,13.2,8.6l9.04,3.47,86.63.03ZM272.5,301.87c2.68-.78,5.65-1.2,7.93-2.35,7.5-3.81,15.81-7.51,20.04-14.95l6.15-10.81c1.24-2.19,1.78-4.01,3.37-6.3v-29.89c-1.56-2.27-2.36-4.05-3.31-6.17-5.32-11.8-14.23-20.95-26.34-25.78-2.41-.96-6.93-2.93-9.37-3.23-11.06-1.39-21.12-1.3-30.62,2.95-11.79,5.27-23.9,16.21-27.44,28.2l-2.45,8.29c-2.11,7.14-1.73,13.21-.13,20.36,3.23,14.47,9.15,24.78,22.23,33.42,2.03,1.34,4.38,2.51,6.8,3.39l7.36,2.66c11.16,4.03,16.19,3.03,25.78.22ZM209.57,325.65l2.97,8.59c11.43,33.02,35.69,62.97,69.92,73.23l12.9,2.98c6.15,1.42,14.19,1.61,20.53.17l15.29-3.48c23.69-7.9,42.08-25.06,51.95-48.01l3.05-8.53,3.15-12.81c2.02-8.2,1.84-18.19-.05-26.29l-3.06-13.11-2.78-7.72-11.53-22.23c-6.33,1.82-8.06,7.47-11.57,11.95-12.33,15.76-31.85,28.11-50.63,34.59l-8.2,2.83-11.35,2.69c-3.23.77-7.69,2.39-11.07,2.41-10.13.05-20.16,1.92-29.72-.59l-11.88-3.13-6.85-2.91c-3.13-1.33-7.83-3.48-10.04-5.57l-15.21-14.46c-1.25,2.87-1.48,5.04-1.05,7.08l2.11,9.97,3.12,12.37Z"/>
</svg>
